<svg class="img-fluid" id="outputsvg" xmlns="http://www.w3.org/2000/svg" width="1000" height="1000" viewBox="0 0 10000 10000" style="transform: matrix(1, 0, 0, 1, -0.472656, -0.832031); transform-origin: 50% 50%; cursor: move; max-height: none; transition: none 0s ease 0s;"><g id="l5xMUMiaIolFqx7cAzVwUIr" fill="rgb(0,183,0)" style="transform: none; transform-origin: 50% 50%;"><g style="transform: none;"><path id="pcMf7x7VM" d="M2015 9990 c-577 -40 -1129 -320 -1497 -760 -267 -318 -431 -686 -495 -1105 -17 -114 -18 -274 -18 -3125 0 -3358 -6 -3081 70 -3375 195 -759 791 -1355 1550 -1550 294 -76 17 -70 3375 -70 2851 0 3011 1 3125 18 634 96 1162 429 1510 952 177 265 291 567 342 900 17 114 18 274 18 3125 0 3358 6 3081 -70 3375 -197 764 -801 1364 -1565 1554 -283 70 -13 65 -3285 67 -1622 1 -2999 -2 -3060 -6z m2890 -1510 c120 -41 364 -178 792 -444 304 -188 972 -659 1181 -831 9 -8 47 -38 83 -67 413 -330 787 -691 1019 -984 318 -400 498 -781 581 -1229 31 -165 34 -535 6 -695 -105 -596 -356 -1070 -802 -1513 -571 -568 -1381 -936 -2320 -1054 -221 -28 -742 -25 -970 6 -506 68 -913 188 -1330 391 -678 331 -1176 797 -1485 1386 -122 232 -206 480 -256 759 -22 121 -30 477 -15 598 66 511 251 942 580 1349 181 225 425 454 641 601 207 141 379 244 504 301 119 55 186 84 261 116 44 18 89 37 100 41 36 16 287 96 385 122 129 36 323 76 495 102 209 33 330 92 381 186 16 29 19 57 19 204 0 148 -5 197 -34 372 -30 176 -33 207 -22 242 21 73 80 84 206 41z"></path><path id="p3IBdy6LZ" d="M2531 5511 c-11 -11 -23 -35 -26 -53 -3 -18 -5 -401 -3 -851 l3 -819 28 -24 c27 -23 32 -24 206 -24 175 0 178 0 200 24 l23 24 2 639 1 638 363 5 364 5 19 24 c17 21 19 41 19 205 0 170 -1 184 -20 204 l-21 22 -569 0 c-551 0 -571 -1 -589 -19z"></path><path id="piInM0LA7" d="M3914 5516 c-18 -14 -19 -37 -24 -853 -3 -461 -3 -847 0 -858 15 -60 13 -60 217 -63 178 -3 189 -2 210 17 13 12 24 38 28 63 3 24 5 408 3 854 -3 782 -4 813 -22 833 -18 20 -29 21 -206 21 -145 0 -190 -3 -206 -14z"></path><path id="paBURivlA" d="M4551 5504 c-21 -27 -21 -32 -21 -871 l0 -844 25 -24 c24 -25 27 -25 200 -25 97 0 184 4 194 10 22 11 56 56 645 854 l51 69 5 -451 c3 -248 7 -452 10 -455 25 -22 65 -27 215 -27 161 0 199 6 217 34 4 6 8 395 8 864 0 839 0 852 -20 872 -19 19 -33 20 -210 20 l-190 0 -40 -52 c-40 -53 -245 -329 -399 -538 -45 -61 -118 -160 -163 -222 l-83 -112 -5 448 c-5 428 -6 448 -24 462 -16 11 -61 14 -207 14 l-188 0 -20 -26z"></path><path id="pWzobOWaZ" d="M6324 5522 c-33 -22 -34 -47 -34 -892 l0 -841 25 -24 24 -25 560 0 560 0 27 24 c31 26 30 17 26 254 -2 127 -4 144 -22 162 -19 19 -33 20 -380 20 l-360 0 0 105 0 105 360 0 c438 0 400 -15 400 159 0 65 3 145 6 179 6 58 5 62 -24 91 l-30 31 -356 0 -356 0 0 100 0 100 350 0 c373 0 392 2 408 49 5 14 7 104 4 200 -4 152 -7 176 -23 192 -18 18 -46 19 -586 19 -313 0 -573 -4 -579 -8z"></path></g></g><g id="l2642uxFQ8aNesnwUT4oEGs" fill="rgb(255,255,255)" style="transform: none; transform-origin: 50% 50%;"><g style="transform: none;"><path id="p1EfJ46yv7" d="M4709 8525 c-58 -32 -62 -108 -17 -361 25 -144 31 -208 32 -329 1 -128 -2 -155 -18 -184 -57 -106 -190 -162 -461 -197 -22 -3 -56 -10 -75 -14 -19 -5 -53 -12 -75 -16 -130 -20 -541 -135 -650 -183 -11 -4 -56 -23 -100 -41 -75 -32 -142 -61 -261 -116 -125 -57 -297 -160 -504 -301 -338 -231 -691 -611 -892 -963 -146 -254 -268 -584 -303 -820 -4 -24 -8 -47 -10 -50 -2 -3 -6 -34 -10 -70 -3 -36 -9 -73 -12 -84 -10 -34 -5 -400 7 -506 92 -829 617 -1590 1445 -2093 387 -235 854 -414 1320 -506 323 -64 455 -75 850 -76 376 0 472 7 758 55 256 43 582 135 842 237 796 312 1434 860 1767 1518 130 257 201 473 255 775 28 163 25 590 -6 755 -78 422 -240 780 -520 1150 -250 330 -623 697 -1080 1063 -36 29 -74 59 -83 67 -209 172 -877 643 -1181 831 -599 372 -804 475 -947 474 -25 -1 -57 -7 -71 -15z m-1029 -3047 c18 -20 20 -35 20 -174 0 -135 -2 -154 -19 -175 l-19 -24 -364 -5 -363 -5 -2 -639 -3 -639 -22 -24 c-21 -22 -27 -23 -169 -23 -142 0 -149 1 -176 24 l-28 24 -3 789 c-2 433 0 803 3 821 3 18 15 42 26 53 18 18 37 19 559 19 l539 0 21 -22z m616 1 c18 -20 19 -50 22 -803 2 -429 0 -800 -3 -824 -4 -25 -15 -51 -28 -63 -21 -19 -32 -20 -180 -17 -170 3 -171 4 -187 61 -3 10 -3 383 0 828 5 788 6 811 24 825 15 11 57 14 176 14 147 0 158 -1 176 -21z m640 7 c18 -14 19 -34 24 -502 l5 -488 111 150 c61 82 148 200 193 261 153 208 360 487 401 541 l40 52 160 0 c147 0 162 -2 180 -20 20 -20 20 -33 20 -842 0 -453 -4 -828 -8 -834 -18 -27 -56 -34 -186 -34 -135 0 -179 9 -190 37 -3 7 -6 230 -6 493 0 264 -2 480 -4 480 -3 0 -66 -83 -381 -510 -327 -442 -356 -480 -376 -490 -10 -6 -83 -10 -164 -10 -142 0 -147 1 -170 25 l-25 24 0 814 c0 809 0 814 21 841 l20 26 158 0 c120 0 162 -3 177 -14z m2520 0 c17 -13 20 -31 24 -163 6 -165 0 -195 -36 -212 -17 -7 -135 -11 -374 -11 l-350 0 0 -130 0 -130 356 0 356 0 30 -30 c18 -19 28 -36 24 -46 -3 -9 -6 -76 -6 -150 0 -121 -2 -136 -20 -154 -19 -19 -33 -20 -380 -20 l-360 0 0 -135 0 -135 360 0 c347 0 361 -1 380 -20 18 -18 20 -34 21 -162 2 -178 3 -169 -27 -195 l-25 -23 -530 0 -530 0 -24 25 -25 24 0 811 c0 815 1 840 34 862 6 4 252 8 547 8 446 0 538 -2 555 -14z"></path></g></g></svg>